<?xml version="1.0"?>
<svg>
  <defs>
    <svg id="ic_signal_wifi_0_bar_24px" viewBox="0 0 24 24">
      <path fill-opacity=".3" d="M12.01 21.49L23.64 7c-.45-.34-4.93-4-11.64-4C5.28 3 .81 6.66.36 7l11.63 14.49.01.01.01-.01z"/>
    </svg>
    <svg id="ic_signal_wifi_1_bar_24px" viewBox="0 0 24 24">
      <path fill-opacity=".3" d="M12.01 21.49L23.64 7c-.45-.34-4.93-4-11.64-4C5.28 3 .81 6.66.36 7l11.63 14.49.01.01.01-.01z"/>
      <path d="M6.67 14.86L12 21.49v.01l.01-.01 5.33-6.63C17.06 14.65 15.03 13 12 13s-5.06 1.65-5.33 1.86z"/>
    </svg>
    <svg id="ic_signal_wifi_2_bar_24px" viewBox="0 0 24 24">
      <path fill-opacity=".3" d="M12.01 21.49L23.64 7c-.45-.34-4.93-4-11.64-4C5.28 3 .81 6.66.36 7l11.63 14.49.01.01.01-.01z"/>
      <path d="M4.79 12.52l7.2 8.98H12l.01-.01 7.2-8.98C18.85 12.24 16.1 10 12 10s-6.85 2.24-7.21 2.52z"/>
    </svg>
    <svg id="ic_signal_wifi_3_bar_24px" viewBox="0 0 24 24">
      <path fill-opacity=".3" d="M12.01 21.49L23.64 7c-.45-.34-4.93-4-11.64-4C5.28 3 .81 6.66.36 7l11.63 14.49.01.01.01-.01z"/>
      <path d="M3.53 10.95l8.46 10.54.01.01.01-.01 8.46-10.54C20.04 10.62 16.81 8 12 8c-4.81 0-8.04 2.62-8.47 2.95z"/>
    </svg>
    <svg id="ic_signal_wifi_4_bar_24px" viewBox="0 0 24 24">
      <path d="M12.01 21.49L23.64 7c-.45-.34-4.93-4-11.64-4C5.28 3 .81 6.66.36 7l11.63 14.49.01.01.01-.01z"/>
    </svg>
  </defs>
</svg>
