<?xml version="1.0"?>
<svg>
  <defs>
    <svg id="content_copy" viewBox="0 0 24 24">
      <path d="M16 1H4c-1.1 0-2 .9-2 2v14h2V3h12V1zm3 4H8c-1.1 0-2 .9-2 2v14c0 1.1.9 2 2 2h11c1.1 0 2-.9 2-2V7c0-1.1-.9-2-2-2zm0 16H8V7h11v14z"/>
    </svg>
    <svg id="lock" viewBox="0 0 24 24">
      <path d="M18 8h-1V6c0-2.76-2.24-5-5-5S7 3.24 7 6v2H6c-1.1 0-2 .9-2 2v10c0 1.1.9 2 2 2h12c1.1 0 2-.9 2-2V10c0-1.1-.9-2-2-2zm-6 9c-1.1 0-2-.9-2-2s.9-2 2-2 2 .9 2 2-.9 2-2 2zm3.1-9H8.9V6c0-1.71 1.39-3.1 3.1-3.1 1.71 0 3.1 1.39 3.1 3.1v2z"/>
    </svg>
    <svg id="refresh" viewBox="0 0 24 24">
      <path d="M17.65 6.35C16.2 4.9 14.21 4 12 4c-4.42 0-7.99 3.58-7.99 8s3.57 8 7.99 8c3.73 0 6.84-2.55 7.73-6h-2.08c-.82 2.33-3.04 4-5.65 4-3.31 0-6-2.69-6-6s2.69-6 6-6c1.66 0 3.14.69 4.22 1.78L13 11h7V4l-2.35 2.35z"/>
    </svg>
    <svg id="signal_wifi_0_bar" viewBox="0 0 24 24">
      <path fill-opacity=".3" d="M12.01 21.49L23.64 7c-.45-.34-4.93-4-11.64-4C5.28 3 .81 6.66.36 7l11.63 14.49.01.01.01-.01z"/>
    </svg>
    <svg id="signal_wifi_1_bar" viewBox="0 0 24 24">
      <path fill-opacity=".3" d="M12.01 21.49L23.64 7c-.45-.34-4.93-4-11.64-4C5.28 3 .81 6.66.36 7l11.63 14.49.01.01.01-.01z"/>
      <path d="M6.67 14.86L12 21.49v.01l.01-.01 5.33-6.63C17.06 14.65 15.03 13 12 13s-5.06 1.65-5.33 1.86z"/>
    </svg>
    <svg id="signal_wifi_2_bar" viewBox="0 0 24 24">
      <path fill-opacity=".3" d="M12.01 21.49L23.64 7c-.45-.34-4.93-4-11.64-4C5.28 3 .81 6.66.36 7l11.63 14.49.01.01.01-.01z"/>
      <path d="M4.79 12.52l7.2 8.98H12l.01-.01 7.2-8.98C18.85 12.24 16.1 10 12 10s-6.85 2.24-7.21 2.52z"/>
    </svg>
    <svg id="signal_wifi_3_bar" viewBox="0 0 24 24">
      <path fill-opacity=".3" d="M12.01 21.49L23.64 7c-.45-.34-4.93-4-11.64-4C5.28 3 .81 6.66.36 7l11.63 14.49.01.01.01-.01z"/>
      <path d="M3.53 10.95l8.46 10.54.01.01.01-.01 8.46-10.54C20.04 10.62 16.81 8 12 8c-4.81 0-8.04 2.62-8.47 2.95z"/>
    </svg>
    <svg id="signal_wifi_4_bar" viewBox="0 0 24 24">
      <path d="M12.01 21.49L23.64 7c-.45-.34-4.93-4-11.64-4C5.28 3 .81 6.66.36 7l11.63 14.49.01.01.01-.01z"/>
    </svg>
    <svg id="visibility" viewBox="0 0 24 24">
      <path d="M12 4.5C7 4.5 2.73 7.61 1 12c1.73 4.39 6 7.5 11 7.5s9.27-3.11 11-7.5c-1.73-4.39-6-7.5-11-7.5zM12 17c-2.76 0-5-2.24-5-5s2.24-5 5-5 5 2.24 5 5-2.24 5-5 5zm0-8c-1.66 0-3 1.34-3 3s1.34 3 3 3 3-1.34 3-3-1.34-3-3-3z"/>
    </svg>
    <svg id="visibility_off" viewBox="0 0 24 24">
      <path d="M12 7c2.76 0 5 2.24 5 5 0 .65-.13 1.26-.36 1.83l2.92 2.92c1.51-1.26 2.7-2.89 3.43-4.75-1.73-4.39-6-7.5-11-7.5-1.4 0-2.74.25-3.98.7l2.16 2.16C10.74 7.13 11.35 7 12 7zM2 4.27l2.28 2.28.46.46C3.08 8.3 1.78 10.02 1 12c1.73 4.39 6 7.5 11 7.5 1.55 0 3.03-.3 4.38-.84l.42.42L19.73 22 21 20.73 3.27 3 2 4.27zM7.53 9.8l1.55 1.55c-.05.21-.08.43-.08.65 0 1.66 1.34 3 3 3 .22 0 .44-.03.65-.08l1.55 1.55c-.67.33-1.41.53-2.2.53-2.76 0-5-2.24-5-5 0-.79.2-1.53.53-2.2zm4.31-.78l3.15 3.15.02-.16c0-1.66-1.34-3-3-3l-.17.01z"/>
    </svg>
  </defs>
</svg>
